/* XPM */
static char *_b27bfcae017496beb4e10d6f911acea7TORHKkHZmuIcFGg[] = {
/* columns rows colors chars-per-pixel */
"64 64 6 1 ",
"  c #101010",
". c #400000",
"X c #702000",
"o c #A85828",
"O c #D08830",
"+ c #F8D078",
/* pixels */
" .oo. .oOOO.  ++++O. .+++++++++O++O. .+++++++++O++OOOO. .oXX. X.",
" XoXo oooOoO oOOOOoX +OOOOOOOOOoOOoX +OOOOOOOOOoOOoOooX OoXXX XX",
" XXXo oooooO ooooXoX +oXoooooooooXoX +oXoooooooooXooooX OXoXX XX",
" XXoo oXoXoO oXXoooX OooXXooXOoooooX OooXXooXOoooooXooX OXXXX XX",
" oXXo oOoXoO oOOoooX oooOOooXOoooooX oooOOooXOooooOXooX OXXXX XX",
" XoXo ooOOoO ooXOoXX XoooXOoOooXOoXX XoooXOoOooXoooOoOX OooXX XX",
" .XX. .oooo.  XXXXX. .XXXXXXXXXXXXX. .XXXXXXXXXXXXXXXX. .XXX. X.",
"                                                                ",
".Xo .ooO. .OOO+++++++++O++O. .+++++++++O++O. .+++O. .OOOo. .oo. ",
".XX XXXoO ooooOOOOOOOOOoOOoX +OOOOOOOOOoOOoX +OOOoX OoooXX XXXX ",
".XX XXXoO oooooXoooooooooXoX +oXoooooooooXoX +oXooX OoooXX XXXX ",
".oX XoXoO XooXooXXooXOoooooX OooXXooXOoooooX OooooX OooooX XooX ",
".XX XXXoO oooXooOOooXOoooooX oooOOooXOoooooX oooooX OoooXX XXXX ",
".XX oXXoO XooOOooXOoOooXOoXX XoooXOoOooXOoXX XoooXX OoooXo oXXX ",
".XX .XXX. .XXXXXXXXXXXXXXXX. .XXXXXXXXXXXXX. .XXXX. .XXXX. .XX. ",
"                                                                ",
" .oo. .oOOO.  ++++O+OoXX................XXoOO++O++OOOO. .oXX. X.",
" XoXo oooOoO oOOOOoOoX..                ..XoOOOoOOoOooX OoXXX XX",
" XXXo oooooO ooooXooX.                    .XXooooXooooX OXoXX XX",
" XXoo oXoXoO oXXoooX.                      .XOoooooXooX OXXXX XX",
" oXXo oOoXoO oOOoooX.                      .XOooooOXooX OXXXX XX",
" XoXo ooOOoO ooXOoX.                        .ooXoooOoOX OooXX XX",
" .XX. .oooo.  XXXXX.                        .XXXXXXXXX. .XXX. X.",
"                   .                        .                   ",
".Xo .ooO. .OOO+++++.                        ..+++O. .OOOo. .oo. ",
".XX XXXoO ooooOOOOO.                        .+OOOoX OoooXX XXXX ",
".XX XXXoO oooooXooo.                        .+oXooX OoooXX XXXX ",
".oX XoXoO XooXooXXo.                        .OooooX OooooX XooX ",
".XX XXXoO oooXooOOo.                        .oooooX OoooXX XXXX ",
".XX oXXoO XooOOooXO.                        .XoooXX OoooXo oXXX ",
".XX .XXX. .XXXXXXXX.                        ..XXXX. .XXXX. .XX. ",
"                   .                        .                   ",
" .oo. .oOOO.  ++++O.                        .++O++OOOO. .oXX. X.",
" XoXo oooOoO oOOOOo.                        .OOoOOoOooX OoXXX XX",
" XXXo oooooO ooooXo.                        .ooooXooooX OXoXX XX",
" XXoo oXoXoO oXXooo.                        .OoooooXooX OXXXX XX",
" oXXo oOoXoO oOOooo.                        .OooooOXooX OXXXX XX",
" XoXo ooOOoO ooXOoX.                        .ooXoooOoOX OooXX XX",
" .XX. .oooo.  XXXXX.                        .XXXXXXXXX. .XXX. X.",
"                   .                        .                   ",
".Xo .ooO. .OOO+++++.                        ..+++O. .OOOo. .oo. ",
".XX XXXoO ooooOOOOO.                        .+OOOoX OoooXX XXXX ",
".XX XXXoO oooooXooo.                        .+oXooX OoooXX XXXX ",
".oX XoXoO XooXooXXo.                        .OooooX OooooX XooX ",
".XX XXXoO oooXooOOo.                        .oooooX OoooXX XXXX ",
".XX oXXoO XooOOooXO.                        .XoooXX OoooXo oXXX ",
".XX .XXX. .XXXXXXXX.                        ..XXXX. .XXXX. .XX. ",
"                   .                        .                   ",
" .oo. .oOOO.  ++++O.                        .++O++OOOO. .oXX. X.",
" XoXo oooOoO oOOOOo.                        .OOoOOoOooX OoXXX XX",
" XXXo oooooO ooooXo.                        .ooooXooooX OXoXX XX",
" XXoo oXoXoO oXXooo.                        .OoooooXooX OXXXX XX",
" oXXo oOoXoO oOOooo.                        .OooooOXooX OXXXX XX",
" XoXo ooOOoO ooXOoX.                        .ooXoooOoOX OooXX XX",
" .XX. .oooo.  XXXXX.                        .XXXXXXXXX. .XXX. X.",
"                   .                        .                   ",
".Xo .ooO. .OOO+++++.                        ..+++O. .OOOo. .oo. ",
".XX XXXoO ooooOOOOO.                        .+OOOoX OoooXX XXXX ",
".XX XXXoO oooooXooo.                        .+oXooX OoooXX XXXX ",
".oX XoXoO XooXooXXo.                        .OooooX OooooX XooX ",
".XX XXXoO oooXooOOo.                        .oooooX OoooXX XXXX ",
".XX oXXoO XooOOooXO.                        .XoooXX OoooXo oXXX ",
".XX .XXX. .XXXXXXXX.                        ..XXXX. .XXXX. .XX. ",
"                   .                        .                   "
};
