/* XPM */
static char *e2395f5849324a0ca6e197921c38a272vcp2CmMyXdujeVro[] = {
/* columns rows colors chars-per-pixel */
"32 32 43 1 ",
"  c black",
". c #202020",
"X c #2C2C2C",
"o c #480909",
"O c #540B0B",
"+ c #640D0D",
"@ c #700F0F",
"# c #7C1010",
"$ c #484848",
"% c gray33",
"& c gray39",
"* c #646464",
"= c gray44",
"- c #7C7C7C",
"; c #980000",
": c #8C1313",
"> c #981414",
", c #A81616",
"< c #B41818",
"1 c #EC0000",
"2 c #FC0000",
"3 c #FC5454",
"4 c #FC5C5C",
"5 c #FCFC54",
"6 c #868686",
"7 c gray55",
"8 c #989898",
"9 c gray62",
"0 c gray65",
"q c gray66",
"w c gray69",
"e c #B4B4B4",
"r c #BBBBBB",
"t c #FC9C9C",
"y c gray77",
"u c gray80",
"i c #D0D0D0",
"p c gray86",
"a c gray89",
"s c #E7E7E7",
"d c #EFEFEF",
"f c #F8F8F8",
"g c white",
/* pixels */
"gggggggggggggggggggggggggggggggg",
"gggggggggggggggggggggggggggggggg",
"gggggggggggggggggggggggggggggggg",
"gggggggggggggggg;ggggggggggggggg",
"ggggggggggggggg;2;gggggggggggggg",
"gggggggggggg2gg1t1gg2ggggggggggg",
"ggggggggggggg344t443gggggggggggg",
"ggggggggggggg1tt5t31gggggggggggg",
"gggggggggggg;35q-q531ggggggggggg",
"ggggggggggg;4tq7i7qt4;gggggggggg",
"gggggggggggg;1-eie-1;ggggggggggg",
"gggggggggggggg$eie$ggggggggggggg",
"ggggggggggggg--$-$--gggggggggggg",
"ggggggggggggX-8XXX*-%ggggggggggg",
"ggggggggggggX-q=-=*-$ggggggggggg",
"ggggggggggggX-q888*-Xggggggggggg",
"ggggggggggggX$8qqq$$ ggggggggggg",
"ggggggggggggX.-$$$ . 6gggggggggg",
"gggggggggggyX.*XXX . 69ggggggggg",
"ggggggggggyaa.*XXX .&69ggggggggg",
"ggggggggggpdf0    ..&999gggggggg",
"ggggggggggpaff0===9rrw09gggggggg",
"gggggggggpaaffffdsaprrw9gggggggg",
"gggggggggparafffdsapurw0gggggggg",
"gggggggggpapraaaaapuurw0gggggggg",
"gggggggggyaauuaaappuurw0gggggggg",
"ggggggggg>>>qq0yyyyy>>>##ggggggg",
"gggggggg>,,>:@+66r+>,,>>#+gggggg",
"ggggggg>,,>>#@+Oo+#:,,>>>#+ggggg",
"gggggg>,,>>##@+OO+#:>:::>>+Ogggg",
"gggggg##>>#@+++OO+#+#>,,>>#+oggg",
"ggggg<>,,>>##@+OO+++>>>,,>#+oogg"
};
