/* XPM */
static char *a4bd0c54e3bb4a3de61f603d0b62ca84CGKzwBauNvT5JVJy[] = {
/* columns rows colors chars-per-pixel */
"32 32 32 1 ",
"  c black",
". c #202020",
"X c #2C2C2C",
"o c #480909",
"O c #540B0B",
"+ c #640D0D",
"@ c #700F0F",
"# c #7C1010",
"$ c #484848",
"% c gray33",
"& c gray39",
"* c #646464",
"= c gray44",
"- c #7C7C7C",
"; c #8C1313",
": c #981414",
"> c #A81616",
", c #868686",
"< c #989898",
"1 c gray62",
"2 c gray65",
"3 c gray66",
"4 c gray69",
"5 c #BBBBBB",
"6 c gray77",
"7 c gray80",
"8 c gray86",
"9 c gray89",
"0 c #E7E7E7",
"q c #EFEFEF",
"w c #F8F8F8",
"e c white",
/* pixels */
"eeeeeeeeeeeeeeeeeeeeeeeeeeeeeeee",
"eeeeeeeeeeeeeeeeeeeeeeeeeeeeeeee",
"eeeeeeeeeeeeeeeeeeeeeeeeeeeeeeee",
"eeeeeeeeeeeeeeeeeeeeeeeeeeeeeeee",
"eeeeeeeeeeeeeeeeeeeeeeeeeeeeeeee",
"eeeeeeeeeeeeeeeeeeeeeeeeeeeeeeee",
"eeeeeeeeeeeeeeeeeeeeeeeeeeeeeeee",
"eeeeeeeeeeeeeeeeeeeeeeeeeeeeeeee",
"eeeeeeeeeeeeeeee eeeeeeeeeeeeeee",
"eeeeeeeeeeeeeee%=%eeeeeeeeeeeeee",
"eeeeeeeeeeeeee$-3-$eeeeeeeeeeeee",
"eeeeeeeeeeeeee$-3-$eeeeeeeeeeeee",
"eeeeeeeeeeeee--$-$--eeeeeeeeeeee",
"eeeeeeeeeeeeX-<XXX*-%eeeeeeeeeee",
"eeeeeeeeeeeeX-3=-=*-$eeeeeeeeeee",
"eeeeeeeeeeeeX-3<<<*-Xeeeeeeeeeee",
"eeeeeeeeeeeeX$<333$$ eeeeeeeeeee",
"eeeeeeeeeeeeX.-$$$ . ,eeeeeeeeee",
"eeeeeeeeeee6X.*XXX . ,1eeeeeeeee",
"eeeeeeeeee699.*XXX .&,1eeeeeeeee",
"eeeeeeeeee8qw2    ..&111eeeeeeee",
"eeeeeeeeee89ww2===155421eeeeeeee",
"eeeeeeeee899wwwwq0985541eeeeeeee",
"eeeeeeeee8959wwwq0987542eeeeeeee",
"eeeeeeeee898599999877542eeeeeeee",
"eeeeeeeee699779998877542eeeeeeee",
"eeeeeeeee:::55266666:::##eeeeeee",
"eeeeeeee:>>:;@+,,,+:>>::#+eeeeee",
"eeeeeee:>>::#@+Oo+#;>>:::#+eeeee",
"eeeeee:>>::##@+OO+#;:;;;::+Oeeee",
"eeeeee##::#@+++OO+#+#:>>::#+oeee",
"eeeee#:>>::##@+OO+++:::>>:#+ooee"
};
