/* XPM */
static char *_b12c71576e447d8c818e69b395560b1eXpw6IyVASCcTkwN[] = {
/* columns rows colors chars-per-pixel */
"32 32 35 1 ",
"  c black",
". c #202020",
"X c #2C2C2C",
"o c gray22",
"O c #480909",
"+ c #540B0B",
"@ c #640D0D",
"# c #700F0F",
"$ c #7C1010",
"% c #484848",
"& c gray33",
"* c #646464",
"= c gray44",
"- c #7C7C7C",
"; c #8C1313",
": c #981414",
"> c #A81616",
", c #8B8B8B",
"< c gray55",
"1 c #989898",
"2 c gray62",
"3 c gray65",
"4 c gray66",
"5 c gray69",
"6 c #B4B4B4",
"7 c #BBBBBB",
"8 c #C3C3C3",
"9 c gray77",
"0 c gray80",
"q c gray86",
"w c gray89",
"e c #E7E7E7",
"r c #EFEFEF",
"t c #F8F8F8",
"y c white",
/* pixels */
"yyyyyyyyyyyyyyyyyyyyyyyyyyyyyyyy",
"yyyyyyyyyyyyyyyyyyyyyyyyyyyyyyyy",
"yyyyyyyyyyyyyyyyoyyyyyyyyyyyyyyy",
"yyyyyyyyyyyyyyy&=&yyyyyyyyyyyyyy",
"yyyyyyyyyyyyyy%-4-%yyyyyyyyyyyyy",
"yyyyyyyyyyyyyy%-4-%yyyyyyyyyyyyy",
"yyyyyyyyyyyyyy%-4-%yyyyyyyyyyyyy",
"yyyyyyyyyyyyyy%-4-%yyyyyyyyyyyyy",
"yyyyyyyyyyyyy--*<*--yyyyyyyyyyyy",
"yyyyyyyyyyyy*--*<*--*yyyyyyyyyyy",
"yyyyyyyyyyyy&-4o%o*-&yyyyyyyyyyy",
"yyyyyyyyyyyy&11XXX*-%yyyyyyyyyyy",
"yyyyyyyyyyyy&46=-=*-oyyyyyyyyyyy",
"yyyyyyyyyyyy&46666*%X2yyyyyyyyyy",
"yyyyyyyyyyyq&<6<<<%% 22yyyyyyyyy",
"yyyyyyyyyyqr&&-%%%X. 22yyyyyyyyy",
"yyyyyyyyyyqr*&*XXX . ,22yyyyyyyy",
"yyyyyyyyyyqr-&*XXX  &3,2yyyyyyyy",
"yyyyyyyyyqqww-&   .&23,2yyyyyyyy",
"yyyyyyyyyqqwte3===277532yyyyyyyy",
"yyyyyyyyyqwwtrrrrewq7752yyyyyyyy",
"yyyyyyyyyqw7wrrrrewq0753yyyyyyyy",
"yyyyyyyyyqwq7qqqqqq00753yyyyyyyy",
"yyyyyyyyy9ww770000007783yyyyyyyy",
"yyyyyyyyy5www58888888883yyyyyyyy",
"yyyyyyyy::::$,,,,,$$$$$$@yyyyyyy",
"yyyyyyy:>>>:$##3,+$:::$$$@yyyyyy",
"yyyyyyy:>>>:$$#++$$::$$$$@yyyyyy",
"yyyyyy::>:;#$$@++$$$###@@@@yyyyy",
"yyyyy:>>>>::#@@@O+$#$;$$$@@@yyyy",
"yyyyy>>>>::$$$@+O+#$;;;$$$@@yyyy",
"yyyy:>>>::$$$@@+O+#$;;;$$$$@@yyy"
};
