/* XPM */
static char *_30588766bd04ff5f925b6fa20b775253kbMHjqHIIi8lV28[] = {
/* columns rows colors chars-per-pixel */
"64 64 12 1 ",
"  c #070707",
". c #140E0E",
"X c #1A1512",
"o c #1B1916",
"O c #231F19",
"+ c #23201D",
"@ c #2E2A25",
"# c #312220",
"$ c #3C3129",
"% c #3F3628",
"& c #454135",
"* c #555145",
/* pixels */
"                                                                ",
"ooooooooooo oooooooooooooo oooooooooooooooo oooooooooooooo ooooo",
"@oo@@o@@@@@ ooo@@@@@@@@@@@ @@@@o@oo@@o@@@@@ ooo@@@@@@@@@@@ @@@@o",
"@@@@@@@@@@@ @@@@@@@@@@oo@@o@@@@@@@@@@@@@@@@ @@@@@@@@@@oo@@o@@@@@",
"@@@@@@@@@o$ $@@@@oo@@@@@o@o$@@@@@@@@@@@@@o$ $@@@@oo@@@@@o@o$@@@@",
"@@@@@@@oo@$o$@@@@@@@@@@@@$o$@@@@@@@@@@@oo@$o$@@@@@@@@@@@@$o$@@@@",
"$$$$&&&&&&&o&&&&&&&&&&&&&&o&&&&&$$$$&&&&&&&o&&&&&&&&&&&&&&o&&&&&",
"@@@@@@@@@@@o@@@@@@@@@@@@@@o@@@@@@@@@@@@@@@@o@@@@@@@@@@@@@@o@@@@@",
"$$$$$$+$$$$$$$$$$$$$$++$$$$$$$$$$$$$$$+$$$$$$$$$$$$$$++$$$$$$$$$",
"******+**&&**********+******&&********+**&&**********+******&&**",
"@@@@@@o@@@@@@@@@@@@@@o@@@@@@@@@@@@@@@@o@@@@@@@@@@@@@@o@@@@@@@@@@",
"@@@@@@o@@@+@@@@@@@@@@o@@@@@@@@@@@@@@@@o@@@+@@@@@@@@@@o@@@@@@@@@@",
"@@@@++o@@@+@@@@@@@@@@o+++++@@+@@@@@@++o@@@+@@@@@@@@@@o+++++@@+@@",
"++++++o++++++++++++++o++++++++++++++++o++++++++++++++o++++++++++",
"oooooooooooooooooooooooooooooooooooooooooooooooooooooooooooooooo",
"................................................................",
"XXXXXXX.OXXXXXX.XXXXXXO.OXXXXXX.XXXXXXX.OXXXXXX.XXXXXXO.OXXXXXX.",
"OOOOOOO.OOOOOOO.XOOOOOO.OOOOOOO.OOOOOOO.OOOOOOO.XOOOOOO.OOOOOOO.",
"O#####O.#####OO.OOO####.O####O..O#####O.#####OO.OOO####.O####O..",
"................................................................",
"##OO#####%%%.%%###OO#####%%%.%%###OO#####%%%.%%###OO#####%%%.%%#",
"###X########.######X########.######X########.######X########.###",
"###XO#######.######XO#######.######XO#######.######XO#######.###",
"..XXXOOOOOOOOOXX%%%%%OOOOOOOOOXX..XXXOOOOOOOOOXX%%%%%OOOOOOOOOXX",
"###%%%%%.#%%%%#X#####%%%.#%%%%#X###%%%%%.#%%%%#X#####%%%.#%%%%#X",
"########.######X########.######X########.######X########.######X",
"O#######O######.O#######O######.O#######O######.O#######O######.",
"OOXXXOOOOOOOOO..OOXXXOOOOOOOOO..OOXXXOOOOOOOOO..OOXXXOOOOOOOOO..",
"%%O##%%%##OO####%%O##%%%##OO####%%O##%%%##OO####%%O##%%%##OO####",
"##O########O######O########O######O########O######O########O####",
"##.########.######.########.######.########.######.########.####",
".....OOOOXXX.........OOOOXXX.........OOOOXXX.........OOOOXXX....",
"###%%%%%.#%%%%#X###%%%%%.#%%%%#X###%%%%%.#%%%%#X###%%%%%.#%%%%#X",
"########.######X########.######X########.######X########.######X",
"O#######O######.O#######O######.O#######O######.O#######O######.",
"OOXXXOOOOOOOOO..OOXXXOOOOOOOOO..OOXXXOOOOOOOOO..OOXXXOOOOOOOOO..",
"%%O##%%%##OO####%%O##%%%##OO####%%O##%%%##OO####%%O##%%%##OO####",
"##O########O######O########O######O########O######O########O####",
"##.########.######.########.######.########.######.########.####",
".....OOOOXXX.........OOOOXXX.........OOOOXXX.........OOOOXXX....",
"%%%####O####%%%.%%%####O####%%%.%%%####O####%%%.%%%####O####%%%.",
"#######O#######.#######O#######.#######O#######.#######O#######.",
"#######OO######O#######OO######O#######OO######O#######OO######O",
".OOO%%%%%X....OO.OOOOOOXXX....OO.OOO%%%%%X....OO.OOOOOOXXX....OO",
"##OO#####%%%.%%###OO#####%%%.%%###OO#####%%%.%%###OO#####%%%.%%#",
"###X########.######X########.######X########.######X########.###",
"###XO#######.######XO#######.######XO#######.######XO#######.###",
"..XXXOOOOOOOOOXX..XXXOOOOOOOOOXX..XXXOOOOOOOOOXX..XXXOOOOOOOOOXX",
"###%%%%%.#%%%%#X###%%%%%.#%%%%#X###%%%%%.#%%%%#X###%%%%%.#%%%%#X",
"########.######X########.######X########.######X########.######X",
"O#######O######.O#######O######.O#######O######.O#######O######.",
"OOXXXOOOOOOOOO..OOXXXOOOOOOOOO..OOXXXOOOOOOOOO..OOXXXOOOOOOOOO..",
"%%O##%%%##OO####%%O##%%%##OO####%%O##%%%##OO####%%O##%%%##OO####",
"##O########O######O########O######O########O######O########O####",
"##.########.######.########.######.########.######.########.####",
"++++++++++++++++++++++++++++++++++++++++++++++++++++++++++++++++",
"$$$@@@@@@@$$$+$$$$@@@@@@@@@@@@@@$$$@@@@@@@$$$+$$$$@@@$@@@@@@@@@@",
"$$$$$$$$$$$$$+$$$$$$@$$$$$@@@$$$$$$$$$$$$$$$$+$$$$$$$$$$$$@@@$$$",
"&&&&&*****&&&+&&&&*************&&&&&&*****&&&+&&&&*************&",
"@@@@@@@@@@@@@o@@@@@@@@@@@@@@@@@@@@@@@@@@@@@@@o@@@@@@@@@@@@@@@@@@",
"@@@@@@+@@@@@@o@@@+@@@@@@@@@+@@@@@@@@@@+@@@@@@o@@@+@@@@@@@@@+@@@@",
"@@@++++++@+@+o@@@+@++++@++@+@@@@@@@++++++@+@+o@@@+@+++++++@+@@@@",
"+++++++++++++o+++++++++++++++++++++++++++++++o++++++++++++++++++",
"oooooooooooooooooooooooooooooooooooooooooooooooooooooooooooooooo"
};
